<svg id="Layer_1" data-name="Layer 1" xmlns="http://www.w3.org/2000/svg" viewBox="0 0 521.07 380.78"><defs><style>.cls-1{fill:#47a358;}.cls-2{fill:#fff;}</style></defs><title>Artboard 12</title><rect class="cls-1" width="521.07" height="380.78"/><path class="cls-2" d="M466.1,81.79V313.05a38.54,38.54,0,0,1-38.54,38.55h-334A38.55,38.55,0,0,1,55,313.05V81.79A38.55,38.55,0,0,1,93.51,43.24H427.56A38.54,38.54,0,0,1,466.1,81.79ZM427.56,308.24V86.6a4.82,4.82,0,0,0-4.82-4.81H98.33a4.82,4.82,0,0,0-4.82,4.81V308.24a4.82,4.82,0,0,0,4.82,4.81H422.74A4.82,4.82,0,0,0,427.56,308.24ZM189.87,146a32.12,32.12,0,1,1-32.12-32.12A32.12,32.12,0,0,1,189.87,146ZM132.05,236l31.73-31.73a9.64,9.64,0,0,1,13.63,0L209.14,236l96-96a9.64,9.64,0,0,1,13.63,0L389,210.27v64.24h-257Z"/></svg>