<svg id="Layer_1" data-name="Layer 1" xmlns="http://www.w3.org/2000/svg" viewBox="0 0 500 580"><defs><style>.cls-1{fill:#fbfbfb;}.cls-2{fill:#3d3d3d;}</style></defs><title>Artboard 11</title><rect class="cls-1" width="500" height="580"/><path class="cls-2" d="M420.72,194V386a32,32,0,0,1-32,32H111.29a32,32,0,0,1-32-32V194a32,32,0,0,1,32-32H388.71A32,32,0,0,1,420.72,194ZM388.71,382V198a4,4,0,0,0-4-4H115.29a4,4,0,0,0-4,4V382a4,4,0,0,0,4,4H384.71A4,4,0,0,0,388.71,382ZM191.31,247.32a26.68,26.68,0,1,1-26.67-26.68A26.67,26.67,0,0,1,191.31,247.32ZM143.3,322l26.35-26.35a8,8,0,0,1,11.32,0L207.32,322l79.7-79.7a8,8,0,0,1,11.32,0l58.36,58.36V354H143.3Z"/></svg>